<svg xmlns="http://www.w3.org/2000/svg" viewBox="0 0 59 55.5"><title>ad shopping cart-2</title><g id="Layer_2" data-name="Layer 2"><g id="Layer_1-2" data-name="Layer 1"><g id="ad_shopping_cart-2" data-name="ad shopping cart-2"><path d="M42.38,40.12h-19a10.84,10.84,0,0,1-10.62-8.76L9.06,12.06A4.9,4.9,0,0,0,5.23,8.18l-2.88-.6A3,3,0,0,1,3.55,1.8l2.88.6a10.78,10.78,0,0,1,8.42,8.54l3.73,19.3a4.94,4.94,0,0,0,4.83,4h19A4.93,4.93,0,0,0,47,31.06L53.3,14.58a2.95,2.95,0,1,1,5.5,2.11L52.48,33.17A10.87,10.87,0,0,1,42.38,40.12Z"/><circle cx="42.11" cy="50.58" r="4.92"/><circle cx="22.79" cy="50.58" r="4.92"/><path d="M42.36,8.85h-5.9V3a2.95,2.95,0,0,0-5.9,0v5.9h-5.9a3,3,0,1,0,0,5.9h5.9v5.9a2.95,2.95,0,0,0,5.9,0v-5.9h5.9a3,3,0,1,0,0-5.9Z"/></g></g></g></svg>